<svg xmlns="http://www.w3.org/2000/svg" viewBox="0 0 64 64">
  <defs>
    <linearGradient id="h" x1="10" y1="16" x2="54" y2="20" gradientUnits="userSpaceOnUse">
      <stop offset="0" stop-color="#B9372A"/>
      <stop offset="0.5" stop-color="#A56B45"/>
      <stop offset="1" stop-color="#E1AF3A"/>
    </linearGradient>
  </defs>
  <rect width="64" height="64" rx="15" fill="#2C1B14"/>
  <path d="M32 54 C18 45 9 38 9 27 C9 20 14 15 21 15 C26 15 30 18 32 22 C34 18 38 15 43 15 C50 15 55 20 55 27 C55 38 46 45 32 54 Z"
        fill="none" stroke="url(#h)" stroke-width="3.4" stroke-linejoin="round"/>
  <circle cx="26" cy="30" r="6.5" fill="#4A3128"/>
  <circle cx="39" cy="30" r="6.5" fill="#E9C9A6"/>
  <path d="M32 36 c-2 -3 -7 -2 -7 2 c0 3 4 5 7 8 c3 -3 7 -5 7 -8 c0 -4 -5 -5 -7 -2 Z" fill="#B9372A"/>
</svg>
